<svg width="1440" height="60" viewBox="0 0 1440 60" fill="none" xmlns="http://www.w3.org/2000/svg">
<rect width="1440" height="60" fill="white"/>
<rect width="1440" height="60" fill="#FFAB00" fill-opacity="0.64"/>
<path d="M161.662 24.824C161.758 23.336 162.326 22.176 163.366 21.344C164.422 20.512 165.766 20.096 167.398 20.096C168.518 20.096 169.486 20.296 170.302 20.696C171.118 21.096 171.734 21.64 172.15 22.328C172.566 23.016 172.774 23.792 172.774 24.656C172.774 25.648 172.51 26.496 171.982 27.2C171.454 27.904 170.822 28.376 170.086 28.616V28.712C171.03 29 171.766 29.528 172.294 30.296C172.822 31.048 173.086 32.016 173.086 33.2C173.086 34.144 172.87 34.984 172.438 35.72C172.006 36.456 171.366 37.04 170.518 37.472C169.67 37.888 168.654 38.096 167.47 38.096C165.742 38.096 164.318 37.656 163.198 36.776C162.094 35.88 161.502 34.6 161.422 32.936H164.062C164.126 33.784 164.454 34.48 165.046 35.024C165.638 35.552 166.438 35.816 167.446 35.816C168.422 35.816 169.174 35.552 169.702 35.024C170.23 34.48 170.494 33.784 170.494 32.936C170.494 31.816 170.134 31.024 169.414 30.56C168.71 30.08 167.622 29.84 166.15 29.84H165.526V27.584H166.174C167.47 27.568 168.454 27.352 169.126 26.936C169.814 26.52 170.158 25.864 170.158 24.968C170.158 24.2 169.91 23.592 169.414 23.144C168.918 22.68 168.214 22.448 167.302 22.448C166.406 22.448 165.71 22.68 165.214 23.144C164.718 23.592 164.422 24.152 164.326 24.824H161.662ZM179.056 20.24V38H176.32V20.24H179.056ZM194.768 31.064C194.768 31.56 194.736 32.008 194.672 32.408H184.568C184.648 33.464 185.04 34.312 185.744 34.952C186.448 35.592 187.312 35.912 188.336 35.912C189.808 35.912 190.848 35.296 191.456 34.064H194.408C194.008 35.28 193.28 36.28 192.224 37.064C191.184 37.832 189.888 38.216 188.336 38.216C187.072 38.216 185.936 37.936 184.928 37.376C183.936 36.8 183.152 36 182.576 34.976C182.016 33.936 181.736 32.736 181.736 31.376C181.736 30.016 182.008 28.824 182.552 27.8C183.112 26.76 183.888 25.96 184.88 25.4C185.888 24.84 187.04 24.56 188.336 24.56C189.584 24.56 190.696 24.832 191.672 25.376C192.648 25.92 193.408 26.688 193.952 27.68C194.496 28.656 194.768 29.784 194.768 31.064ZM191.912 30.2C191.896 29.192 191.536 28.384 190.832 27.776C190.128 27.168 189.256 26.864 188.216 26.864C187.272 26.864 186.464 27.168 185.792 27.776C185.12 28.368 184.72 29.176 184.592 30.2H191.912ZM202.788 24.56C203.812 24.56 204.716 24.768 205.5 25.184C206.3 25.584 206.924 26.088 207.372 26.696V24.776H210.132V38.216C210.132 39.432 209.876 40.512 209.364 41.456C208.852 42.416 208.108 43.168 207.132 43.712C206.172 44.256 205.02 44.528 203.676 44.528C201.884 44.528 200.396 44.104 199.212 43.256C198.028 42.424 197.356 41.288 197.196 39.848H199.908C200.116 40.536 200.556 41.088 201.228 41.504C201.916 41.936 202.732 42.152 203.676 42.152C204.78 42.152 205.668 41.816 206.34 41.144C207.028 40.472 207.372 39.496 207.372 38.216V36.008C206.908 36.632 206.276 37.16 205.476 37.592C204.692 38.008 203.796 38.216 202.788 38.216C201.636 38.216 200.58 37.928 199.62 37.352C198.676 36.76 197.924 35.944 197.364 34.904C196.82 33.848 196.548 32.656 196.548 31.328C196.548 30 196.82 28.824 197.364 27.8C197.924 26.776 198.676 25.984 199.62 25.424C200.58 24.848 201.636 24.56 202.788 24.56ZM207.372 31.376C207.372 30.464 207.18 29.672 206.796 29C206.428 28.328 205.94 27.816 205.332 27.464C204.724 27.112 204.068 26.936 203.364 26.936C202.66 26.936 202.004 27.112 201.396 27.464C200.788 27.8 200.292 28.304 199.908 28.976C199.54 29.632 199.356 30.416 199.356 31.328C199.356 32.24 199.54 33.04 199.908 33.728C200.292 34.416 200.788 34.944 201.396 35.312C202.02 35.664 202.676 35.84 203.364 35.84C204.068 35.84 204.724 35.664 205.332 35.312C205.94 34.96 206.428 34.448 206.796 33.776C207.18 33.088 207.372 32.288 207.372 31.376ZM212.814 31.328C212.814 30 213.086 28.824 213.63 27.8C214.19 26.776 214.942 25.984 215.886 25.424C216.846 24.848 217.902 24.56 219.054 24.56C220.094 24.56 220.998 24.768 221.766 25.184C222.55 25.584 223.174 26.088 223.638 26.696V24.776H226.398V38H223.638V36.032C223.174 36.656 222.542 37.176 221.742 37.592C220.942 38.008 220.03 38.216 219.006 38.216C217.87 38.216 216.83 37.928 215.886 37.352C214.942 36.76 214.19 35.944 213.63 34.904C213.086 33.848 212.814 32.656 212.814 31.328ZM223.638 31.376C223.638 30.464 223.446 29.672 223.062 29C222.694 28.328 222.206 27.816 221.598 27.464C220.99 27.112 220.334 26.936 219.63 26.936C218.926 26.936 218.27 27.112 217.662 27.464C217.054 27.8 216.558 28.304 216.174 28.976C215.806 29.632 215.622 30.416 215.622 31.328C215.622 32.24 215.806 33.04 216.174 33.728C216.558 34.416 217.054 34.944 217.662 35.312C218.286 35.664 218.942 35.84 219.63 35.84C220.334 35.84 220.99 35.664 221.598 35.312C222.206 34.96 222.694 34.448 223.062 33.776C223.446 33.088 223.638 32.288 223.638 31.376ZM236.663 24.56C237.703 24.56 238.631 24.776 239.447 25.208C240.279 25.64 240.927 26.28 241.391 27.128C241.855 27.976 242.087 29 242.087 30.2V38H239.375V30.608C239.375 29.424 239.079 28.52 238.487 27.896C237.895 27.256 237.087 26.936 236.063 26.936C235.039 26.936 234.223 27.256 233.615 27.896C233.023 28.52 232.727 29.424 232.727 30.608V38H229.991V24.776H232.727V26.288C233.175 25.744 233.743 25.32 234.431 25.016C235.135 24.712 235.879 24.56 236.663 24.56ZM248.769 27.008V34.328C248.769 34.824 248.881 35.184 249.105 35.408C249.345 35.616 249.745 35.72 250.305 35.72H251.985V38H249.825C248.593 38 247.649 37.712 246.993 37.136C246.337 36.56 246.009 35.624 246.009 34.328V27.008H244.449V24.776H246.009V21.488H248.769V24.776H251.985V27.008H248.769Z" fill="black"/>
<path d="M255.611 38.168C255.115 38.168 254.699 38 254.363 37.664C254.027 37.328 253.859 36.912 253.859 36.416C253.859 35.92 254.027 35.504 254.363 35.168C254.699 34.832 255.115 34.664 255.611 34.664C256.091 34.664 256.499 34.832 256.835 35.168C257.171 35.504 257.339 35.92 257.339 36.416C257.339 36.912 257.171 37.328 256.835 37.664C256.499 38 256.091 38.168 255.611 38.168Z" fill="#141718"/>
<path d="M526.522 35V25.2H528.034V29.4H532.15V25.2H533.662V35H532.15V30.772H528.034V35H526.522ZM538.986 35.196C538.295 35.196 537.679 35.056 537.138 34.776C536.606 34.4867 536.186 34.076 535.878 33.544C535.57 33.012 535.416 32.382 535.416 31.654V31.444C535.416 30.716 535.57 30.0907 535.878 29.568C536.186 29.036 536.606 28.6253 537.138 28.336C537.679 28.0467 538.295 27.902 538.986 27.902C539.676 27.902 540.292 28.0467 540.834 28.336C541.375 28.6253 541.8 29.036 542.108 29.568C542.416 30.0907 542.57 30.716 542.57 31.444V31.654C542.57 32.382 542.416 33.012 542.108 33.544C541.8 34.076 541.375 34.4867 540.834 34.776C540.292 35.056 539.676 35.196 538.986 35.196ZM538.986 33.908C539.62 33.908 540.134 33.7073 540.526 33.306C540.927 32.8953 541.128 32.3307 541.128 31.612V31.486C541.128 30.7673 540.932 30.2073 540.54 29.806C540.148 29.3953 539.63 29.19 538.986 29.19C538.36 29.19 537.847 29.3953 537.446 29.806C537.054 30.2073 536.858 30.7673 536.858 31.486V31.612C536.858 32.3307 537.054 32.8953 537.446 33.306C537.847 33.7073 538.36 33.908 538.986 33.908ZM544.365 35V28.098H545.779V28.91H546.003C546.133 28.6673 546.343 28.4527 546.633 28.266C546.922 28.0793 547.314 27.986 547.809 27.986C548.322 27.986 548.733 28.0933 549.041 28.308C549.358 28.5133 549.596 28.7793 549.755 29.106H549.979C550.137 28.7887 550.366 28.5227 550.665 28.308C550.973 28.0933 551.407 27.986 551.967 27.986C552.415 27.986 552.811 28.0793 553.157 28.266C553.502 28.4433 553.777 28.714 553.983 29.078C554.188 29.4327 554.291 29.876 554.291 30.408V35H552.849V30.52C552.849 30.1 552.732 29.778 552.499 29.554C552.275 29.3207 551.953 29.204 551.533 29.204C551.085 29.204 550.725 29.3487 550.455 29.638C550.184 29.9273 550.049 30.3427 550.049 30.884V35H548.607V30.52C548.607 30.1 548.49 29.778 548.257 29.554C548.033 29.3207 547.711 29.204 547.291 29.204C546.843 29.204 546.483 29.3487 546.213 29.638C545.942 29.9273 545.807 30.3427 545.807 30.884V35H544.365ZM559.533 35.196C558.833 35.196 558.221 35.0513 557.699 34.762C557.176 34.4633 556.765 34.048 556.467 33.516C556.177 32.9747 556.033 32.3493 556.033 31.64V31.472C556.033 30.7533 556.177 30.128 556.467 29.596C556.756 29.0547 557.157 28.6393 557.671 28.35C558.193 28.0513 558.795 27.902 559.477 27.902C560.139 27.902 560.718 28.0513 561.213 28.35C561.717 28.6393 562.109 29.0453 562.389 29.568C562.669 30.0907 562.809 30.702 562.809 31.402V31.948H557.503C557.521 32.5547 557.722 33.04 558.105 33.404C558.497 33.7587 558.982 33.936 559.561 33.936C560.102 33.936 560.508 33.8147 560.779 33.572C561.059 33.3293 561.273 33.0493 561.423 32.732L562.613 33.348C562.482 33.6093 562.291 33.8847 562.039 34.174C561.796 34.4633 561.474 34.706 561.073 34.902C560.671 35.098 560.158 35.196 559.533 35.196ZM557.517 30.842H561.339C561.301 30.3193 561.115 29.9133 560.779 29.624C560.443 29.3253 560.004 29.176 559.463 29.176C558.921 29.176 558.478 29.3253 558.133 29.624C557.797 29.9133 557.591 30.3193 557.517 30.842Z" fill="#141718"/>
<path d="M607.854 35.196C607.117 35.196 606.463 35.0653 605.894 34.804C605.325 34.5427 604.877 34.16 604.55 33.656C604.233 33.1427 604.074 32.522 604.074 31.794V31.444H605.572V31.794C605.572 32.4847 605.777 33.0027 606.188 33.348C606.608 33.6933 607.163 33.866 607.854 33.866C608.554 33.866 609.081 33.7213 609.436 33.432C609.791 33.1333 609.968 32.7507 609.968 32.284C609.968 31.976 609.884 31.724 609.716 31.528C609.548 31.332 609.31 31.178 609.002 31.066C608.694 30.9447 608.325 30.8327 607.896 30.73L607.378 30.604C606.753 30.4547 606.207 30.2727 605.74 30.058C605.283 29.834 604.928 29.54 604.676 29.176C604.424 28.812 604.298 28.3453 604.298 27.776C604.298 27.1973 604.438 26.7027 604.718 26.292C605.007 25.8813 605.404 25.564 605.908 25.34C606.412 25.116 607.005 25.004 607.686 25.004C608.367 25.004 608.974 25.1207 609.506 25.354C610.047 25.5873 610.472 25.9327 610.78 26.39C611.088 26.8473 611.242 27.4213 611.242 28.112V28.616H609.744V28.112C609.744 27.692 609.655 27.3513 609.478 27.09C609.31 26.8287 609.072 26.6373 608.764 26.516C608.456 26.3947 608.097 26.334 607.686 26.334C607.089 26.334 606.622 26.46 606.286 26.712C605.959 26.9547 605.796 27.2953 605.796 27.734C605.796 28.0327 605.866 28.28 606.006 28.476C606.155 28.6627 606.37 28.8167 606.65 28.938C606.93 29.0593 607.28 29.1667 607.7 29.26L608.218 29.386C608.853 29.526 609.413 29.708 609.898 29.932C610.383 30.1467 610.766 30.4407 611.046 30.814C611.326 31.1873 611.466 31.668 611.466 32.256C611.466 32.844 611.317 33.3573 611.018 33.796C610.729 34.2347 610.313 34.58 609.772 34.832C609.231 35.0747 608.591 35.196 607.854 35.196ZM613.095 35V25.2H614.537V29.078H614.761C614.855 28.9007 614.985 28.728 615.153 28.56C615.331 28.392 615.559 28.2567 615.839 28.154C616.129 28.042 616.493 27.986 616.931 27.986C617.454 27.986 617.916 28.1027 618.317 28.336C618.728 28.5693 619.05 28.9007 619.283 29.33C619.517 29.75 619.633 30.2587 619.633 30.856V35H618.191V30.968C618.191 30.3707 618.042 29.932 617.743 29.652C617.445 29.3627 617.034 29.218 616.511 29.218C615.914 29.218 615.433 29.414 615.069 29.806C614.715 30.198 614.537 30.7673 614.537 31.514V35H613.095ZM624.943 35.196C624.252 35.196 623.636 35.056 623.095 34.776C622.563 34.4867 622.143 34.076 621.835 33.544C621.527 33.012 621.373 32.382 621.373 31.654V31.444C621.373 30.716 621.527 30.0907 621.835 29.568C622.143 29.036 622.563 28.6253 623.095 28.336C623.636 28.0467 624.252 27.902 624.943 27.902C625.633 27.902 626.249 28.0467 626.791 28.336C627.332 28.6253 627.757 29.036 628.065 29.568C628.373 30.0907 628.527 30.716 628.527 31.444V31.654C628.527 32.382 628.373 33.012 628.065 33.544C627.757 34.076 627.332 34.4867 626.791 34.776C626.249 35.056 625.633 35.196 624.943 35.196ZM624.943 33.908C625.577 33.908 626.091 33.7073 626.483 33.306C626.884 32.8953 627.085 32.3307 627.085 31.612V31.486C627.085 30.7673 626.889 30.2073 626.497 29.806C626.105 29.3953 625.587 29.19 624.943 29.19C624.317 29.19 623.804 29.3953 623.403 29.806C623.011 30.2073 622.815 30.7673 622.815 31.486V31.612C622.815 32.3307 623.011 32.8953 623.403 33.306C623.804 33.7073 624.317 33.908 624.943 33.908ZM630.322 37.8V28.098H631.736V29.092H631.96C632.137 28.784 632.403 28.5087 632.758 28.266C633.122 28.0233 633.64 27.902 634.312 27.902C634.89 27.902 635.418 28.042 635.894 28.322C636.379 28.602 636.766 29.008 637.056 29.54C637.354 30.0627 637.504 30.6973 637.504 31.444V31.654C637.504 32.4007 637.359 33.04 637.07 33.572C636.78 34.0947 636.393 34.496 635.908 34.776C635.422 35.056 634.89 35.196 634.312 35.196C633.864 35.196 633.486 35.14 633.178 35.028C632.87 34.916 632.622 34.776 632.436 34.608C632.249 34.4307 632.1 34.2487 631.988 34.062H631.764V37.8H630.322ZM633.892 33.936C634.526 33.936 635.044 33.7353 635.446 33.334C635.847 32.9327 636.048 32.3587 636.048 31.612V31.486C636.048 30.7487 635.842 30.1793 635.432 29.778C635.03 29.3767 634.517 29.176 633.892 29.176C633.276 29.176 632.762 29.3767 632.352 29.778C631.95 30.1793 631.75 30.7487 631.75 31.486V31.612C631.75 32.3587 631.95 32.9327 632.352 33.334C632.762 33.7353 633.276 33.936 633.892 33.936Z" fill="#141718"/>
<path d="M645.204 27.75L649.704 32.25L654.204 27.75" stroke="#141718" stroke-width="1.125" stroke-linecap="round" stroke-linejoin="round"/>
<path d="M699.522 35V25.2H703.414C704.011 25.2 704.543 25.3213 705.01 25.564C705.486 25.7973 705.855 26.1333 706.116 26.572C706.387 27.0013 706.522 27.5193 706.522 28.126V28.308C706.522 28.9147 706.382 29.4373 706.102 29.876C705.831 30.3147 705.463 30.6507 704.996 30.884C704.529 31.1173 704.002 31.234 703.414 31.234H701.034V35H699.522ZM701.034 29.862H703.26C703.792 29.862 704.217 29.722 704.534 29.442C704.851 29.162 705.01 28.7793 705.01 28.294V28.154C705.01 27.6593 704.851 27.272 704.534 26.992C704.217 26.712 703.792 26.572 703.26 26.572H701.034V29.862ZM708 35V28.098H709.414V28.91H709.638C709.75 28.6207 709.927 28.4107 710.17 28.28C710.422 28.14 710.73 28.07 711.094 28.07H711.92V29.372H711.038C710.571 29.372 710.188 29.5027 709.89 29.764C709.591 30.016 709.442 30.408 709.442 30.94V35H708ZM716.402 35.196C715.711 35.196 715.095 35.056 714.554 34.776C714.022 34.4867 713.602 34.076 713.294 33.544C712.986 33.012 712.832 32.382 712.832 31.654V31.444C712.832 30.716 712.986 30.0907 713.294 29.568C713.602 29.036 714.022 28.6253 714.554 28.336C715.095 28.0467 715.711 27.902 716.402 27.902C717.092 27.902 717.708 28.0467 718.25 28.336C718.791 28.6253 719.216 29.036 719.524 29.568C719.832 30.0907 719.986 30.716 719.986 31.444V31.654C719.986 32.382 719.832 33.012 719.524 33.544C719.216 34.076 718.791 34.4867 718.25 34.776C717.708 35.056 717.092 35.196 716.402 35.196ZM716.402 33.908C717.036 33.908 717.55 33.7073 717.942 33.306C718.343 32.8953 718.544 32.3307 718.544 31.612V31.486C718.544 30.7673 718.348 30.2073 717.956 29.806C717.564 29.3953 717.046 29.19 716.402 29.19C715.776 29.19 715.263 29.3953 714.862 29.806C714.47 30.2073 714.274 30.7673 714.274 31.486V31.612C714.274 32.3307 714.47 32.8953 714.862 33.306C715.263 33.7073 715.776 33.908 716.402 33.908ZM724.637 35.196C724.067 35.196 723.54 35.056 723.055 34.776C722.569 34.496 722.177 34.0947 721.879 33.572C721.589 33.04 721.445 32.4007 721.445 31.654V31.444C721.445 30.7067 721.589 30.072 721.879 29.54C722.168 29.008 722.555 28.602 723.041 28.322C723.526 28.042 724.058 27.902 724.637 27.902C725.085 27.902 725.458 27.958 725.757 28.07C726.065 28.182 726.317 28.3267 726.513 28.504C726.709 28.672 726.858 28.8493 726.961 29.036H727.185V25.2H728.627V35H727.213V34.02H726.989C726.811 34.3187 726.541 34.5893 726.177 34.832C725.822 35.0747 725.309 35.196 724.637 35.196ZM725.043 33.936C725.668 33.936 726.181 33.7353 726.583 33.334C726.993 32.9327 727.199 32.3587 727.199 31.612V31.486C727.199 30.7487 726.998 30.1793 726.597 29.778C726.195 29.3767 725.677 29.176 725.043 29.176C724.427 29.176 723.913 29.3767 723.503 29.778C723.101 30.1793 722.901 30.7487 722.901 31.486V31.612C722.901 32.3587 723.101 32.9327 723.503 33.334C723.913 33.7353 724.427 33.936 725.043 33.936ZM733.396 35.126C732.873 35.126 732.406 35.0093 731.996 34.776C731.585 34.5427 731.263 34.2113 731.03 33.782C730.796 33.3527 730.68 32.8393 730.68 32.242V28.098H732.122V32.144C732.122 32.7413 732.271 33.1847 732.57 33.474C732.868 33.754 733.284 33.894 733.816 33.894C734.404 33.894 734.875 33.698 735.23 33.306C735.594 32.9047 735.776 32.3307 735.776 31.584V28.098H737.218V35H735.804V33.964H735.58C735.449 34.244 735.216 34.51 734.88 34.762C734.544 35.0047 734.049 35.126 733.396 35.126ZM742.555 35.196C741.892 35.196 741.29 35.056 740.749 34.776C740.217 34.496 739.792 34.09 739.475 33.558C739.167 33.026 739.013 32.3867 739.013 31.64V31.458C739.013 30.7113 739.167 30.0767 739.475 29.554C739.792 29.022 740.217 28.616 740.749 28.336C741.29 28.0467 741.892 27.902 742.555 27.902C743.218 27.902 743.782 28.0233 744.249 28.266C744.716 28.5087 745.089 28.8307 745.369 29.232C745.658 29.6333 745.845 30.0767 745.929 30.562L744.529 30.856C744.482 30.548 744.384 30.268 744.235 30.016C744.086 29.764 743.876 29.5633 743.605 29.414C743.334 29.2647 742.994 29.19 742.583 29.19C742.182 29.19 741.818 29.2833 741.491 29.47C741.174 29.6473 740.922 29.9087 740.735 30.254C740.548 30.59 740.455 31.0007 740.455 31.486V31.612C740.455 32.0973 740.548 32.5127 740.735 32.858C740.922 33.2033 741.174 33.4647 741.491 33.642C741.818 33.8193 742.182 33.908 742.583 33.908C743.19 33.908 743.652 33.754 743.969 33.446C744.286 33.1287 744.487 32.7273 744.571 32.242L745.971 32.564C745.859 33.04 745.658 33.4787 745.369 33.88C745.089 34.2813 744.716 34.6033 744.249 34.846C743.782 35.0793 743.218 35.196 742.555 35.196ZM749.965 35C749.545 35 749.209 34.874 748.957 34.622C748.714 34.37 748.593 34.034 748.593 33.614V29.316H746.689V28.098H748.593V25.816H750.035V28.098H752.093V29.316H750.035V33.362C750.035 33.642 750.165 33.782 750.427 33.782H751.869V35H749.965Z" fill="#141718"/>
<path d="M760.204 27.75L764.704 32.25L769.204 27.75" stroke="#141718" stroke-width="1.125" stroke-linecap="round" stroke-linejoin="round"/>
<path d="M818.162 35.196C816.967 35.196 816.02 34.86 815.32 34.188C814.62 33.5067 814.27 32.5267 814.27 31.248V28.952C814.27 27.6733 814.62 26.698 815.32 26.026C816.02 25.3447 816.967 25.004 818.162 25.004C819.338 25.004 820.243 25.3307 820.878 25.984C821.522 26.6373 821.844 27.5287 821.844 28.658V28.742H820.346V28.616C820.346 27.9533 820.164 27.412 819.8 26.992C819.445 26.572 818.899 26.362 818.162 26.362C817.415 26.362 816.832 26.5907 816.412 27.048C815.992 27.496 815.782 28.1213 815.782 28.924V31.276C815.782 32.0693 815.992 32.6947 816.412 33.152C816.832 33.6093 817.415 33.838 818.162 33.838C818.899 33.838 819.445 33.628 819.8 33.208C820.164 32.7787 820.346 32.2373 820.346 31.584V31.346H821.844V31.542C821.844 32.6713 821.522 33.5627 820.878 34.216C820.243 34.8693 819.338 35.196 818.162 35.196ZM826.794 35.196C826.103 35.196 825.487 35.056 824.946 34.776C824.414 34.4867 823.994 34.076 823.686 33.544C823.378 33.012 823.224 32.382 823.224 31.654V31.444C823.224 30.716 823.378 30.0907 823.686 29.568C823.994 29.036 824.414 28.6253 824.946 28.336C825.487 28.0467 826.103 27.902 826.794 27.902C827.485 27.902 828.101 28.0467 828.642 28.336C829.183 28.6253 829.608 29.036 829.916 29.568C830.224 30.0907 830.378 30.716 830.378 31.444V31.654C830.378 32.382 830.224 33.012 829.916 33.544C829.608 34.076 829.183 34.4867 828.642 34.776C828.101 35.056 827.485 35.196 826.794 35.196ZM826.794 33.908C827.429 33.908 827.942 33.7073 828.334 33.306C828.735 32.8953 828.936 32.3307 828.936 31.612V31.486C828.936 30.7673 828.74 30.2073 828.348 29.806C827.956 29.3953 827.438 29.19 826.794 29.19C826.169 29.19 825.655 29.3953 825.254 29.806C824.862 30.2073 824.666 30.7673 824.666 31.486V31.612C824.666 32.3307 824.862 32.8953 825.254 33.306C825.655 33.7073 826.169 33.908 826.794 33.908ZM832.173 35V28.098H833.587V29.134H833.811C833.942 28.854 834.175 28.5927 834.511 28.35C834.847 28.1073 835.347 27.986 836.009 27.986C836.532 27.986 836.994 28.1027 837.395 28.336C837.806 28.5693 838.128 28.9007 838.361 29.33C838.595 29.75 838.711 30.2587 838.711 30.856V35H837.269V30.968C837.269 30.3707 837.12 29.932 836.821 29.652C836.523 29.3627 836.112 29.218 835.589 29.218C834.992 29.218 834.511 29.414 834.147 29.806C833.793 30.198 833.615 30.7673 833.615 31.514V35H832.173ZM843.185 35C842.765 35 842.429 34.874 842.177 34.622C841.935 34.37 841.813 34.034 841.813 33.614V29.316H839.909V28.098H841.813V25.816H843.255V28.098H845.313V29.316H843.255V33.362C843.255 33.642 843.386 33.782 843.647 33.782H845.089V35H843.185ZM849.136 35.196C848.641 35.196 848.198 35.112 847.806 34.944C847.423 34.776 847.115 34.5287 846.882 34.202C846.658 33.8753 846.546 33.4787 846.546 33.012C846.546 32.536 846.658 32.144 846.882 31.836C847.115 31.5187 847.428 31.2807 847.82 31.122C848.221 30.9633 848.674 30.884 849.178 30.884H851.278V30.436C851.278 30.0347 851.156 29.7127 850.914 29.47C850.671 29.2273 850.298 29.106 849.794 29.106C849.299 29.106 848.921 29.2227 848.66 29.456C848.398 29.6893 848.226 29.9927 848.142 30.366L846.798 29.932C846.91 29.5587 847.087 29.2227 847.33 28.924C847.582 28.616 847.913 28.3687 848.324 28.182C848.734 27.9953 849.229 27.902 849.808 27.902C850.704 27.902 851.408 28.1307 851.922 28.588C852.435 29.0453 852.692 29.694 852.692 30.534V33.376C852.692 33.656 852.822 33.796 853.084 33.796H853.672V35H852.594C852.267 35 852.001 34.916 851.796 34.748C851.59 34.58 851.488 34.3513 851.488 34.062V34.02H851.278C851.203 34.16 851.091 34.3233 850.942 34.51C850.792 34.6967 850.573 34.86 850.284 35C849.994 35.1307 849.612 35.196 849.136 35.196ZM849.346 34.006C849.924 34.006 850.391 33.8427 850.746 33.516C851.1 33.18 851.278 32.7227 851.278 32.144V32.004H849.262C848.879 32.004 848.571 32.088 848.338 32.256C848.104 32.4147 847.988 32.6527 847.988 32.97C847.988 33.2873 848.109 33.5393 848.352 33.726C848.594 33.9127 848.926 34.006 849.346 34.006ZM858.116 35.196C857.453 35.196 856.851 35.056 856.31 34.776C855.778 34.496 855.353 34.09 855.036 33.558C854.728 33.026 854.574 32.3867 854.574 31.64V31.458C854.574 30.7113 854.728 30.0767 855.036 29.554C855.353 29.022 855.778 28.616 856.31 28.336C856.851 28.0467 857.453 27.902 858.116 27.902C858.778 27.902 859.343 28.0233 859.81 28.266C860.276 28.5087 860.65 28.8307 860.93 29.232C861.219 29.6333 861.406 30.0767 861.49 30.562L860.09 30.856C860.043 30.548 859.945 30.268 859.796 30.016C859.646 29.764 859.436 29.5633 859.166 29.414C858.895 29.2647 858.554 29.19 858.144 29.19C857.742 29.19 857.378 29.2833 857.052 29.47C856.734 29.6473 856.482 29.9087 856.296 30.254C856.109 30.59 856.016 31.0007 856.016 31.486V31.612C856.016 32.0973 856.109 32.5127 856.296 32.858C856.482 33.2033 856.734 33.4647 857.052 33.642C857.378 33.8193 857.742 33.908 858.144 33.908C858.75 33.908 859.212 33.754 859.53 33.446C859.847 33.1287 860.048 32.7273 860.132 32.242L861.532 32.564C861.42 33.04 861.219 33.4787 860.93 33.88C860.65 34.2813 860.276 34.6033 859.81 34.846C859.343 35.0793 858.778 35.196 858.116 35.196ZM865.525 35C865.105 35 864.769 34.874 864.517 34.622C864.274 34.37 864.153 34.034 864.153 33.614V29.316H862.249V28.098H864.153V25.816H865.595V28.098H867.653V29.316H865.595V33.362C865.595 33.642 865.726 33.782 865.987 33.782H867.429V35H865.525ZM876.542 35.196C875.767 35.196 875.1 35.056 874.54 34.776C873.989 34.496 873.56 34.0947 873.252 33.572C872.953 33.04 872.804 32.396 872.804 31.64V25.2H874.33V31.682C874.33 32.3727 874.521 32.9047 874.904 33.278C875.286 33.6513 875.832 33.838 876.542 33.838C877.251 33.838 877.797 33.6513 878.18 33.278C878.562 32.9047 878.754 32.3727 878.754 31.682V25.2H880.266V31.64C880.266 32.396 880.116 33.04 879.818 33.572C879.519 34.0947 879.09 34.496 878.53 34.776C877.97 35.056 877.307 35.196 876.542 35.196ZM885.109 35.196C884.231 35.196 883.503 35 882.925 34.608C882.346 34.216 881.991 33.6233 881.861 32.83L883.205 32.508C883.279 32.8907 883.405 33.194 883.583 33.418C883.76 33.642 883.979 33.8007 884.241 33.894C884.511 33.9873 884.801 34.034 885.109 34.034C885.566 34.034 885.916 33.9453 886.159 33.768C886.411 33.5907 886.537 33.362 886.537 33.082C886.537 32.802 886.42 32.5967 886.187 32.466C885.953 32.3353 885.608 32.228 885.151 32.144L884.675 32.06C884.208 31.976 883.783 31.8547 883.401 31.696C883.018 31.5373 882.715 31.318 882.491 31.038C882.267 30.758 882.155 30.3987 882.155 29.96C882.155 29.3067 882.397 28.8027 882.883 28.448C883.368 28.084 884.012 27.902 884.815 27.902C885.589 27.902 886.224 28.0793 886.719 28.434C887.223 28.7793 887.549 29.2507 887.699 29.848L886.355 30.226C886.271 29.806 886.093 29.512 885.823 29.344C885.552 29.1667 885.216 29.078 884.815 29.078C884.423 29.078 884.115 29.1527 883.891 29.302C883.667 29.442 883.555 29.6427 883.555 29.904C883.555 30.184 883.662 30.3893 883.877 30.52C884.101 30.6507 884.399 30.7487 884.773 30.814L885.263 30.898C885.757 30.982 886.21 31.0987 886.621 31.248C887.031 31.3973 887.353 31.612 887.587 31.892C887.829 32.172 887.951 32.5453 887.951 33.012C887.951 33.7027 887.694 34.2393 887.181 34.622C886.667 35.0047 885.977 35.196 885.109 35.196Z" fill="#141718"/>
<path d="M1168.5 36.5L1172 40M1171 29.5C1171 24.2533 1166.75 20 1161.5 20C1156.25 20 1152 24.2533 1152 29.5C1152 34.7467 1156.25 39 1161.5 39C1166.75 39 1171 34.7467 1171 29.5Z" stroke="#141718" stroke-width="1.5" stroke-linecap="round" stroke-linejoin="round"/>
<path d="M1208.56 37.5488C1207.57 34.8918 1205 33 1202 33C1199 33 1196.43 34.8918 1195.44 37.5488M1208.56 37.5488C1210.67 35.7154 1212 33.0134 1212 30C1212 24.4772 1207.52 20 1202 20C1196.48 20 1192 24.4772 1192 30C1192 33.0134 1193.33 35.7154 1195.44 37.5488M1208.56 37.5488C1206.8 39.0756 1204.51 40 1202 40C1199.49 40 1197.2 39.0756 1195.44 37.5488M1205 27C1205 28.6569 1203.66 30 1202 30C1200.34 30 1199 28.6569 1199 27C1199 25.3431 1200.34 24 1202 24C1203.66 24 1205 25.3431 1205 27Z" stroke="#141718" stroke-width="1.5" stroke-linejoin="round"/>
<g clip-path="url(#clip0_88_10425)">
<circle cx="1270" cy="30" r="10" fill="#141718"/>
<path d="M1266.93 34V32.6705L1270.03 29.794C1270.3 29.5384 1270.52 29.3082 1270.7 29.1037C1270.88 28.8991 1271.02 28.6989 1271.11 28.5028C1271.21 28.304 1271.25 28.0895 1271.25 27.8594C1271.25 27.6037 1271.2 27.3835 1271.08 27.1989C1270.96 27.0114 1270.8 26.8679 1270.6 26.7685C1270.4 26.6662 1270.17 26.6151 1269.92 26.6151C1269.65 26.6151 1269.42 26.669 1269.22 26.777C1269.02 26.8849 1268.86 27.0398 1268.76 27.2415C1268.65 27.4432 1268.59 27.6832 1268.59 27.9616H1266.84C1266.84 27.3906 1266.97 26.8949 1267.23 26.4744C1267.49 26.054 1267.85 25.7287 1268.32 25.4986C1268.78 25.2685 1269.32 25.1534 1269.93 25.1534C1270.55 25.1534 1271.1 25.2642 1271.56 25.4858C1272.03 25.7045 1272.39 26.0085 1272.65 26.3977C1272.91 26.7869 1273.03 27.233 1273.03 27.7358C1273.03 28.0653 1272.97 28.3906 1272.84 28.7116C1272.71 29.0327 1272.48 29.3892 1272.15 29.7812C1271.82 30.1705 1271.36 30.6378 1270.76 31.1832L1269.48 32.4318V32.4915H1273.15V34H1266.93Z" fill="#FFAB00"/>
</g>
<path d="M1240 24L1240 25C1240 26.6569 1241.34 28 1243 28C1244.66 28 1246 26.6569 1246 25V24" stroke="#141718" stroke-width="1.5" stroke-linecap="round" stroke-linejoin="round"/>
<path d="M1246.61 21H1239.39C1237.43 21 1235.76 22.4137 1235.44 24.3424L1233.78 34.3424C1233.37 36.7805 1235.25 39 1237.72 39H1248.28C1250.75 39 1252.63 36.7805 1252.22 34.3424L1250.56 24.3424C1250.24 22.4137 1248.57 21 1246.61 21Z" stroke="#141718" stroke-width="1.5" stroke-linejoin="round"/>
<defs>
<clipPath id="clip0_88_10425">
<rect width="20" height="20" fill="white" transform="translate(1260 20)"/>
</clipPath>
</defs>
</svg>
