<!-- icon666.com - MILLIONS vector ICONS FREE --><svg id="Layer_1" enable-background="new 0 0 100 100" viewBox="0 0 100 100" xmlns="http://www.w3.org/2000/svg"><g><path d="m94.22 32.156c-5.783 0-10.488-4.706-10.488-10.488 0-.822-.68-1.502-1.502-1.502h-64.46c-.822 0-1.502.68-1.502 1.502 0 5.783-4.706 10.488-10.488 10.488-.822 0-1.502.68-1.502 1.502v32.683c0 .822.68 1.474 1.502 1.474 5.783 0 10.488 4.734 10.488 10.517 0 .822.68 1.502 1.502 1.502h64.46c.822 0 1.502-.68 1.502-1.502 0-5.783 4.706-10.517 10.488-10.517.822 0 1.502-.652 1.502-1.474v-32.683c.001-.822-.679-1.502-1.502-1.502zm-29.48.227c-.652-.51-1.587-.454-2.126.198l-26.362 31.38c-.539.624-.454 1.587.17 2.126.624.51 1.587.425 2.126-.198l26.362-31.38c.539-.652.454-1.588-.17-2.126zm-5.499 22.223c-3.969 0-7.2 3.231-7.2 7.2 0 3.94 3.231 7.172 7.2 7.172 3.94 0 7.172-3.231 7.172-7.172 0-3.968-3.232-7.2-7.172-7.2zm0 11.367c-2.324 0-4.195-1.871-4.195-4.167 0-2.324 1.871-4.195 4.195-4.195 2.296 0 4.167 1.871 4.167 4.195 0 2.296-1.871 4.167-4.167 4.167zm-11.282-27.779c0-3.94-3.231-7.172-7.2-7.172-3.94 0-7.172 3.231-7.172 7.172 0 3.969 3.231 7.2 7.172 7.2 3.969 0 7.2-3.232 7.2-7.2zm-11.367 0c0-2.296 1.871-4.167 4.167-4.167 2.324 0 4.195 1.871 4.195 4.167 0 2.324-1.871 4.195-4.195 4.195-2.296 0-4.167-1.871-4.167-4.195zm56.126 26.73c-6.236.68-11.225 5.669-11.906 11.906h-61.625c-.68-6.236-5.669-11.225-11.906-11.906v-29.848c6.236-.68 11.225-5.669 11.906-11.906h61.625c.68 6.236 5.669 11.225 11.906 11.906z"></path></g></svg>